<svg viewBox="0 0 25 25" fill="none" xmlns="http://www.w3.org/2000/svg"><g clip-path="url(#a)"><path opacity=".15" d="M7.8 15.57c0-.4-.15-.73-.44-1-.3-.29-.65-.43-1.06-.43-.41 0-.77.14-1.06.42-.3.28-.44.62-.44 1.01 0 .4.15.73.44 1.01.3.28.65.42 1.06.42.41 0 .77-.14 1.06-.42.3-.28.44-.61.44-1Zm12 0c0-.4-.15-.73-.45-1a1.43 1.43 0 0 0-1.06-.43c-.4 0-.76.14-1.06.42-.29.28-.43.62-.43 1.01 0 .4.14.73.43 1.01.3.28.65.42 1.06.42.42 0 .77-.14 1.06-.42.3-.28.44-.61.44-1Zm-.54-4.42-.85-4.28a.74.74 0 0 0-.74-.58h-10.75a.74.74 0 0 0-.74.58l-.84 4.28a.72.72 0 0 0 .74.85h12.44c.23 0 .42-.09.57-.26a.7.7 0 0 0 .17-.59Zm-2.65-6.83a.5.5 0 0 0-.17-.38.56.56 0 0 0-.4-.15h-7.5a.56.56 0 0 0-.39.15.5.5 0 0 0-.16.38c0 .15.05.28.16.38.11.1.24.16.4.16h7.5c.15 0 .28-.05.4-.16a.5.5 0 0 0 .16-.38Zm4.68 8.1v6.72h-1.5v1.43c0 .4-.14.73-.44 1.01-.29.28-.64.42-1.06.42-.4 0-.76-.14-1.06-.42a1.33 1.33 0 0 1-.43-1v-1.44h-9v1.43c0 .4-.15.73-.44 1.01-.3.28-.65.42-1.06.42-.41 0-.77-.14-1.06-.42a1.3 1.3 0 0 1-.44-1v-1.44h-1.5v-6.73c0-.83.1-1.66.3-2.49l1.2-5.06c.07-.58.45-1.1 1.14-1.53.7-.44 1.6-.77 2.7-1 1.1-.22 2.32-.33 3.66-.33 1.33 0 2.55.11 3.66.33 1.1.23 2 .56 2.7 1 .68.44 1.06.95 1.13 1.53l1.23 5.06c.18.76.27 1.6.27 2.5Z" fill="#1D2E5B"/></g><defs><clipPath id="a"><path fill="#fff" transform="translate(3.298 2)" d="M0 0h18v20h-18z"/></clipPath></defs></svg>