<svg viewBox="0 0 36 34" fill="none" xmlns="http://www.w3.org/2000/svg"><path fill-rule="evenodd" clip-rule="evenodd" d="M18 2.17c-5.6 0-11.2.95-13.23 2.83-1.7 1.57-2.25 4.33-2.44 6.08l-.03.24c0 .69.59 1.24 1.3 1.24.1 0 3.24-.24 5.14-.4.04 0 .09 0 .13-.02a1.27 1.27 0 0 0 1.28-1.23v-2.44c0-.75.65-1.36 1.45-1.36h12.8c.8 0 1.44.61 1.44 1.36l.01 2.44c0 .67.57 1.22 1.28 1.23.04.02.09.02.13.03l5.13.39c.72 0 1.31-.55 1.31-1.24l-.03-.24c-.19-1.75-.75-4.51-2.44-6.08-2.03-1.88-7.64-2.83-13.23-2.83Zm0 16.07a2.55 2.55 0 0 0-2.62 2.47 2.55 2.55 0 0 0 2.62 2.47c1.45 0 2.62-1.1 2.62-2.47a2.55 2.55 0 0 0-2.62-2.47Zm-1.96-5.56v-1.55a1.6 1.6 0 0 0-1.64-1.54c-.9 0-1.63.69-1.63 1.54v1.55l-8.83 8.9a3 3 0 0 0-.99 2.21v2.48a2.55 2.55 0 0 0 2.62 2.47h.66v1.54c0 .86.73 1.55 1.63 1.55.9 0 1.64-.7 1.64-1.55v-1.54h17v1.54c0 .86.74 1.55 1.64 1.55.9 0 1.63-.7 1.63-1.55v-1.54h.66c1.44 0 2.62-1.1 2.62-2.47v-2.48a3 3 0 0 0-1-2.21l-8.82-8.9v-1.55a1.6 1.6 0 0 0-1.63-1.54c-.9 0-1.64.69-1.64 1.54v1.55h-3.92Zm1.96 3.08c2.9 0 5.23 2.22 5.23 4.95s-2.34 4.94-5.23 4.94a5.08 5.08 0 0 1-5.23-4.94 5.1 5.1 0 0 1 5.23-4.95Z" fill="#CCE5FA"/></svg>