<svg viewBox="0 0 25 25" fill="none" xmlns="http://www.w3.org/2000/svg"><g clip-path="url(#a)"><path opacity=".15" d="M18.83 2.18c-.8.18-1.61.36-1.91.86l-2.33 4.37-12.5 2.8-.5 1.4 9.56.85-1.62 3.8-3.63.8-.9 1.5 2.6.26.3 1.22c.14.43.61.72 1.01.63l1.21-.27 1.4 2.25.91-1.49-.9-3.65 2.63-3.16 5.01 8.3 1.01-1.08-3.08-12.58 2.83-4.06c.3-.5.1-1.3-.1-2.12-.1-.4-.6-.72-1-.63Z" fill="#101D41"/></g><defs><clipPath id="a"><path fill="#fff" transform="translate(.298 1)" d="M0 0h23v22h-23z"/></clipPath></defs></svg>