<svg viewBox="0 0 25 25" fill="none" xmlns="http://www.w3.org/2000/svg"><g clip-path="url(#a)" fill="#1D2E5B"><path opacity=".15" d="M14.75 7c1 0 1.82-.9 1.82-2s-.81-2-1.82-2c-1 0-1.82.9-1.82 2s.82 2 1.82 2Zm-1.11 4.97c.21.34.5.6.86.75.35.15.73.18 1.1.08l3-.83-.43-1.94-3.02.83-1.25-2.07a1.83 1.83 0 0 0-1.16-.85l-3.5-.77a1.66 1.66 0 0 0-1.15.16c-.36.2-.65.51-.82.9l-1.51 3.32 1.62.9 1.51-3.32 1.79.4-4.62 8.47h-4.03v2h4.03a1.8 1.8 0 0 0 1.56-.97l1.74-3.2 4.7 1.04 1.65 5.45 1.72-.64-1.65-5.45a2 2 0 0 0-.52-.86c-.24-.24-.53-.4-.85-.46l-2.76-.61 1.61-2.96.38.63Z"/></g><defs><clipPath id="a"><path fill="#fff" d="M0 0h25v25h-25z"/></clipPath></defs></svg>