<svg viewBox="0 0 32 32" fill="none" xmlns="http://www.w3.org/2000/svg"><path d="M29.26 3.69a2.07 2.07 0 0 0-2.1-.33l-23.89 9.65a2.06 2.06 0 0 0 .1 3.84l5.16 1.79 2.8 9.23c0 .02.02.04.03.05a.65.65 0 0 0 .42.4l.04.01h.01c.1.03.21.02.31-.01h.03c.1-.04.19-.1.26-.17l.03-.02 4.02-4.43 5.86 4.54a2.07 2.07 0 0 0 3.27-1.21l4.35-21.36a2.04 2.04 0 0 0-.7-1.98Zm-16.48 16.7-.94 4.59-1.97-6.5 9.76-5.09-6.66 6.67c-.1.09-.16.2-.19.33Zm11.52 6.37a.72.72 0 0 1-.46.53.7.7 0 0 1-.69-.1l-6.35-4.92a.67.67 0 0 0-.9.08l-2.8 3.08.95-4.57 9.58-9.59a.67.67 0 0 0-.78-1.06l-13.81 7.2-5.23-1.82a.7.7 0 0 1-.48-.66.7.7 0 0 1 .45-.69l23.88-9.64a.71.71 0 0 1 .75.11.7.7 0 0 1 .24.7l-4.35 21.35Z" fill="#000"/></svg>