<svg viewBox="0 0 32 32" fill="none" xmlns="http://www.w3.org/2000/svg"><path d="m20.27 15.59-6-4a.5.5 0 0 0-.77.41v8a.49.49 0 0 0 .26.44c.08.04.16.06.24.06.1 0 .2-.03.28-.09l6-4a.49.49 0 0 0 0-.82Zm-5.77 3.47v-6.12l4.6 3.06-4.6 3.06Zm14.31-10.21a2.55 2.55 0 0 0-1.51-1.7c-4.23-1.63-11.01-1.6-11.3-1.6-.29 0-7.07-.03-11.3 1.6a2.55 2.55 0 0 0-1.51 1.7 29.3 29.3 0 0 0-.69 7.15c0 3.71.38 5.94.69 7.15a2.55 2.55 0 0 0 1.51 1.7c4.23 1.62 11.01 1.6 11.3 1.6h.09c.86 0 7.2-.05 11.21-1.6a2.55 2.55 0 0 0 1.51-1.7c.32-1.21.69-3.44.69-7.15 0-3.71-.38-5.94-.69-7.15Zm-.97 14.05a1.5 1.5 0 0 1-.9 1.01c-4.05 1.56-10.87 1.54-10.94 1.54-.07 0-6.89.02-10.94-1.54a1.5 1.5 0 0 1-.9-1.01c-.3-1.16-.66-3.3-.66-6.9 0-3.6.36-5.74.66-6.9a1.5 1.5 0 0 1 .9-1.01c4.05-1.57 10.87-1.54 10.94-1.54.07 0 6.89-.03 10.94 1.54a1.5 1.5 0 0 1 .9 1.01c.3 1.16.66 3.3.66 6.9 0 3.6-.36 5.74-.66 6.9Z" fill="#000"/></svg>