<svg viewBox="0 0 200 50" fill="none" xmlns="http://www.w3.org/2000/svg"><path d="m94 12.64-40.1 37.36-14.64-47.9 54.74 10.54Z" fill="#4D99D6"/><ellipse cx="94.727" cy="33.897" rx="4.353" ry="4.252" fill="#88BFEB"/><ellipse cx="111.867" cy="21.531" rx="15.174" ry="14.821" fill="#EB9898"/><path fill="#72A73E" d="m102.94 23.3 52.8-19.08 9.94 26.26-52.8 19.08z"/><ellipse cx="110.041" cy="40.644" rx="2.551" ry="2.491" fill="#FFBD30"/><ellipse cx="22.779" cy="9.039" rx="22.779" ry="9.039" transform="matrix(.97092 .2394 -.25022 .96819 139.238 19.188)" fill="#8EC7F5"/><ellipse cx="176.368" cy="12.21" rx="2.594" ry="2.534" fill="#FFBD30"/><ellipse cx="184.46" cy="9.2" rx="2.594" ry="2.534" fill="#FFBD30"/><path d="M4.03 42.08h6v2.95a1 1 0 0 1-1 1h-4a1 1 0 0 1-1-1v-2.95Zm37.17 0h6.02v2.95a1 1 0 0 1-1 1h-4.01a1 1 0 0 1-1-1v-2.95Z" fill="#1D2959"/><path fill-rule="evenodd" clip-rule="evenodd" d="M28.82 3.5a9.95 9.95 0 0 0-3.38-.8 9.6 9.6 0 0 0-3.17.82c-.61.25-1.22.53-1.8.84-.7.38-1.56.13-1.94-.55a1.4 1.4 0 0 1 .56-1.9 18.33 18.33 0 0 1 2.09-.98 12.8 12.8 0 0 1 4.2-.93c1.53-.03 3.27.41 4.5.89.76.3 1.5.63 2.23 1.01.7.37.95 1.22.58 1.9-.37.68-1.25.93-1.94.57a15.7 15.7 0 0 0-1.93-.87Z" fill="#8A4A38"/><path d="M19.6 1.73a1.42 1.42 0 0 1 .26 2.8h.25v3.68h-1v-3.65h-.03a.97.97 0 0 1-.97-.97v-.7c0-.65.52-1.16 1.16-1.16h.32Zm12.02 0a1.42 1.42 0 0 0-.27 2.8h-.25v3.68h1.01v-3.65h.03c.53 0 .96-.44.96-.97v-.7c0-.65-.52-1.16-1.16-1.16h-.32Z" fill="#F6EF3E"/><path d="M0 16.76a9 9 0 0 1 9-9h33.25a9 9 0 0 1 9 9v25.32h-51.25v-25.32Z" fill="#8A4A38"/><ellipse cx="8.053" cy="33.247" rx="5.021" ry="4.906" fill="#EF9A9A"/><ellipse cx="4.809" cy="9.257" rx="4.809" ry="9.257" transform="matrix(.7051 -.7091 .72546 .68826 29.371 30.455)" fill="#93C6EB"/><path fill="#C2DEA3" d="m19.75 21.32 11.37-11.82 6.73 6.18-11.36 11.81z"/><rect width="8.335" height="6.246" rx="1" transform="matrix(.73793 .67488 -.69199 .7219 10.584 13.261)" fill="#C49A6C"/><path fill="#F57B20" d="M10.04 23.05h7.07v20h-7.07z"/><path d="M10.04 6.47h7.07v17.3a3.53 3.53 0 0 1-7.07 0v-17.3Z" fill="#F6A725"/><path fill="#F6EF3E" d="M9.06 21.48h9.03v1.96h-9.03z"/><path fill="#F57B20" d="M34.15 23.05h7.07v20h-7.07z"/><path d="M34.15 6.47h7.07v17.3a3.53 3.53 0 0 1-7.07 0v-17.3Z" fill="#F6A725"/><path fill="#F6EF3E" d="M33.17 21.48h9.04v1.96h-9.04z"/></svg>